<svg width="95" height="35" viewBox="0 0 95 35" fill="none" xmlns="http://www.w3.org/2000/svg">
<g clip-path="url(#clip0_578_17289)">
<path d="M56.2994 11.5505C55.4186 10.6664 54.3852 9.96547 53.2034 9.45189C52.0216 8.9363 50.7535 8.68051 49.3992 8.68051C48.414 8.68051 47.475 8.8215 46.5801 9.10145C45.6852 9.38341 44.8465 9.77817 44.068 10.2857V0C41.6101 0 39.6177 1.99994 39.6177 4.46714V18.497C39.6177 19.8423 39.8745 21.1112 40.3861 22.3055C40.8998 23.4998 41.5981 24.5431 42.4869 25.4333C43.3758 26.3255 44.4151 27.0284 45.6029 27.544C46.7928 28.0576 48.0569 28.3154 49.3972 28.3154C50.7495 28.3154 52.0176 28.0576 53.2014 27.544C54.3832 27.0284 55.4166 26.3255 56.2974 25.4333C57.1782 24.5411 57.8765 23.4978 58.3881 22.3055C58.9018 21.1112 59.1566 19.8423 59.1566 18.497C59.1566 17.1395 58.8998 15.8626 58.3881 14.6683C57.8785 13.4759 57.1802 12.4367 56.2994 11.5505ZM54.299 20.5674C54.0261 21.2199 53.6469 21.7879 53.1613 22.2753C52.6757 22.7627 52.1119 23.1474 51.4699 23.4273C50.8278 23.7093 50.1376 23.8503 49.3992 23.8503C48.6608 23.8503 47.9706 23.7093 47.3285 23.4273C46.6864 23.1454 46.1226 22.7627 45.6371 22.2753C45.1515 21.7879 44.7683 21.2179 44.4894 20.5674C44.2085 19.9168 44.068 19.226 44.068 18.499C44.068 17.7578 44.2085 17.0609 44.4894 16.4104C44.7703 15.7599 45.1515 15.1939 45.6371 14.7126C46.1226 14.2332 46.6864 13.8506 47.3285 13.5706C47.9706 13.2886 48.6608 13.1497 49.3992 13.1497C50.1376 13.1497 50.8278 13.2907 51.4699 13.5706C52.1119 13.8526 52.6757 14.2332 53.1613 14.7126C53.6469 15.1939 54.0261 15.7599 54.299 16.4104C54.5718 17.0629 54.7083 17.7578 54.7083 18.499C54.7103 19.226 54.5738 19.9148 54.299 20.5674Z" fill="#061B2C"/>
<path d="M94.2316 14.6905C93.7179 13.4962 93.0177 12.4529 92.1288 11.5627C91.24 10.6705 90.2006 9.96758 89.0128 9.454C87.8229 8.94042 86.5589 8.68262 85.2185 8.68262C83.8662 8.68262 82.5981 8.94042 81.4143 9.454C80.2325 9.96959 79.1992 10.6725 78.3183 11.5627C77.4375 12.4549 76.7392 13.4982 76.2276 14.6905C75.7139 15.8848 75.4591 17.1537 75.4591 18.499C75.4591 19.8565 75.7159 21.1334 76.2276 22.3277C76.7392 23.5221 77.4375 24.5613 78.3183 25.4455C79.1992 26.3296 80.2325 27.0305 81.4143 27.5441C82.5961 28.0597 83.8642 28.3155 85.2185 28.3155C86.2037 28.3155 87.1428 28.1745 88.0376 27.8925C88.9325 27.6106 89.7712 27.2158 90.5497 26.7083V35.0001C93.0077 35.0001 95.0001 33.0001 95.0001 30.5329V18.497C95.0001 17.1537 94.7432 15.8848 94.2316 14.6905ZM90.1304 20.5876C89.8495 21.2382 89.4682 21.8061 88.9827 22.2855C88.4971 22.7648 87.9333 23.1454 87.2912 23.4274C86.6492 23.7094 85.9589 23.8504 85.2206 23.8504C84.4822 23.8504 83.792 23.7094 83.1499 23.4274C82.5078 23.1454 81.944 22.7648 81.4584 22.2855C80.9729 21.8041 80.5936 21.2382 80.3208 20.5876C80.0479 19.9351 79.9115 19.2402 79.9115 18.499C79.9115 17.772 80.0479 17.0812 80.3208 16.4306C80.5936 15.7781 80.9729 15.2101 81.4584 14.7227C81.944 14.2353 82.5078 13.8506 83.1499 13.5707C83.792 13.2887 84.4822 13.1498 85.2206 13.1498C85.9589 13.1498 86.6492 13.2907 87.2912 13.5707C87.9333 13.8527 88.4971 14.2353 88.9827 14.7227C89.4682 15.2101 89.8515 15.7801 90.1304 16.4306C90.4113 17.0812 90.5517 17.772 90.5517 18.499C90.5517 19.2382 90.4113 19.9351 90.1304 20.5876Z" fill="#061B2C"/>
<path d="M61.5162 4.46714V20.366V28.0677C63.9741 28.0677 65.9665 26.0677 65.9665 23.6005V20.364V0C63.5086 0 61.5162 1.99994 61.5162 4.46714Z" fill="#061B2C"/>
<path d="M68.6531 20.3659V28.0676C71.1111 28.0676 73.1035 26.0676 73.1035 23.6004V20.3639V8.88184H68.6531V20.3659Z" fill="#061B2C"/>
<path d="M68.6531 5.69169V6.5255H73.1035V1.22656C70.6455 1.22455 68.6531 3.22449 68.6531 5.69169Z" fill="#061B2C"/>
<path d="M15.9373 7.73777C15.0946 8.27552 14.4144 9.063 14.0071 10.0277C13.7483 10.646 13.6159 11.3026 13.6159 11.9793C13.6159 12.1646 13.6259 12.3479 13.646 12.5272C16.3627 13.3267 18.3451 15.8463 18.3451 18.8311C18.3451 19.7354 18.1625 20.5974 17.8334 21.3809C16.8423 23.7434 14.5127 25.4009 11.8 25.4009C8.18436 25.4009 5.25493 22.4604 5.25493 18.8311V8.97439V0.134766C2.35158 0.134766 0 2.49724 0 5.40954V18.8311C0 25.3727 5.28302 30.6757 11.8 30.6757C17.4442 30.6757 22.1614 26.6959 23.3231 21.3809C23.5037 20.5592 23.6 19.7072 23.6 18.8311C23.602 13.7497 20.4138 9.41949 15.9373 7.73777Z" fill="#20A6FF"/>
<path d="M14.4928 23.0727C15.3355 22.5349 16.0157 21.7474 16.423 20.7827C16.6818 20.1644 16.8142 19.5078 16.8142 18.8311C16.8142 18.6458 16.8042 18.4625 16.7841 18.2833C14.0674 17.4837 12.085 14.9641 12.085 11.9793C12.085 11.075 12.2676 10.213 12.5967 9.42957C13.5878 7.0671 15.9174 5.40954 18.6301 5.40954C22.2457 5.40954 25.1752 8.35004 25.1752 11.9793V21.836V30.6757C28.0785 30.6757 30.4301 28.3132 30.4301 25.4009V11.9793C30.4301 5.43773 25.1471 0.134766 18.6301 0.134766C12.9859 0.134766 8.26872 4.11451 7.10697 9.42957C6.92639 10.2513 6.83008 11.1032 6.83008 11.9793C6.82607 17.0608 10.0143 21.3909 14.4928 23.0727Z" fill="#FC3873"/>
</g>
<defs>
<clipPath id="clip0_578_17289">
<rect width="95" height="35" fill="white"/>
</clipPath>
</defs>
</svg>